<?xml version="1.0" encoding="utf-8"?>
<!-- Generator: Adobe Illustrator 16.0.4, SVG Export Plug-In . SVG Version: 6.00 Build 0)  -->
<!DOCTYPE svg PUBLIC "-//W3C//DTD SVG 1.1//EN" "http://www.w3.org/Graphics/SVG/1.1/DTD/svg11.dtd">
<svg version="1.1" id="Layer_1" xmlns="http://www.w3.org/2000/svg" xmlns:xlink="http://www.w3.org/1999/xlink" x="0px" y="0px"
	 width="720.901px" height="409.238px" viewBox="0 0 720.901 409.238" enable-background="new 0 0 720.901 409.238"
	 xml:space="preserve">
<g>
	<g>
		<g>
			<defs>
				<filter id="Adobe_OpacityMaskFilter" filterUnits="userSpaceOnUse" x="148.951" y="387.899" width="227.521" height="20.312">
					<feColorMatrix  type="matrix" values="1 0 0 0 0  0 1 0 0 0  0 0 1 0 0  0 0 0 1 0"/>
				</filter>
			</defs>
			<mask maskUnits="userSpaceOnUse" x="148.951" y="387.899" width="227.521" height="20.312" id="SVGID_1_">
				<g filter="url(#Adobe_OpacityMaskFilter)">
					
						<radialGradient id="SVGID_2_" cx="262.7119" cy="1660.6509" r="113.7456" gradientTransform="matrix(1 0 0 0.0893 0 249.7589)" gradientUnits="userSpaceOnUse">
						<stop  offset="0" style="stop-color:#FFFFFF"/>
						<stop  offset="1" style="stop-color:#14130A"/>
					</radialGradient>
					<path fill="url(#SVGID_2_)" d="M376.473,398.054c0,5.615-50.932,10.157-113.761,10.157c-62.833,0-113.76-4.542-113.76-10.157
						c0-5.612,50.928-10.155,113.76-10.155C325.541,387.899,376.473,392.442,376.473,398.054z"/>
				</g>
			</mask>
			<linearGradient id="SVGID_3_" gradientUnits="userSpaceOnUse" x1="262.7412" y1="408.187" x2="262.6836" y2="388.0674">
				<stop  offset="0" style="stop-color:#4D4848"/>
				<stop  offset="0.3539" style="stop-color:#14130A"/>
				<stop  offset="1" style="stop-color:#14130A"/>
			</linearGradient>
			<path opacity="0.33" mask="url(#SVGID_1_)" fill="url(#SVGID_3_)" d="M376.473,398.054c0,5.615-50.932,10.157-113.761,10.157
				c-62.833,0-113.76-4.542-113.76-10.157c0-5.612,50.928-10.155,113.76-10.155C325.541,387.899,376.473,392.442,376.473,398.054z"
				/>
			<g>
				<linearGradient id="SVGID_4_" gradientUnits="userSpaceOnUse" x1="192.8076" y1="386.8599" x2="335.6476" y2="386.8599">
					<stop  offset="0.0061" style="stop-color:#58595B"/>
					<stop  offset="0.2803" style="stop-color:#757679"/>
					<stop  offset="0.5091" style="stop-color:#88898D"/>
					<stop  offset="1" style="stop-color:#58595B"/>
				</linearGradient>
				<path fill="url(#SVGID_4_)" d="M193.676,384.499v-0.277c0,0.048,0,0.09,0,0.136v0.05c0,2.618,3.382,5.092,14.507,5.092
					c21.53,0,44.849,0,53.381,0c2.159,0,3.372,0,3.372,0c8.535,0,31.854,0,53.384,0c11.123,0,15.012-1,15.046-5h-1.035l0,0H193.676z
					"/>
				<linearGradient id="SVGID_5_" gradientUnits="userSpaceOnUse" x1="262.5005" y1="333.856" x2="262.5005" y2="395.823">
					<stop  offset="0.0848" style="stop-color:#6D6F73"/>
					<stop  offset="0.127" style="stop-color:#97999C"/>
					<stop  offset="0.1841" style="stop-color:#CCCDCE"/>
					<stop  offset="0.2121" style="stop-color:#E0E1E2"/>
					<stop  offset="0.3152" style="stop-color:#A7A9AC"/>
					<stop  offset="0.3893" style="stop-color:#868789"/>
					<stop  offset="0.4606" style="stop-color:#636363"/>
					<stop  offset="0.5264" style="stop-color:#6E6F6F"/>
					<stop  offset="0.6452" style="stop-color:#8B8D8F"/>
					<stop  offset="0.7394" style="stop-color:#A6AAAD"/>
				</linearGradient>
				<path fill="url(#SVGID_5_)" d="M319.068,369.555c-9.928-10.117-10.303-32.057-10.303-32.057h-44.578h-3.371h-44.58
					c0,0-0.374,21.939-10.302,32.057c-9.928,10.112-25.474,18.943,1.499,18.943c21.529,0,44.849,0,53.383,0c2.157,0,3.371,0,3.371,0
					c8.535,0,31.853,0,53.383,0C344.541,388.499,328.995,379.667,319.068,369.555z"/>
				<radialGradient id="SVGID_6_" cx="330.8677" cy="412.9556" r="53.5825" gradientUnits="userSpaceOnUse">
					<stop  offset="0" style="stop-color:#FFFFFF"/>
					<stop  offset="1" style="stop-color:#FFFFFF;stop-opacity:0"/>
				</radialGradient>
				<path fill="url(#SVGID_6_)" d="M271.369,388.499c5.507-12,23.098-22.613,44.983-24.758c1.004,1.703,2.149,3.515,3.467,4.858
					c9.753,9.936,24.926,19.899-0.12,19.899H271.369z"/>
				
					<radialGradient id="SVGID_7_" cx="588.6445" cy="412.9556" r="53.5825" gradientTransform="matrix(-1 0 0 1 784.2773 0)" gradientUnits="userSpaceOnUse">
					<stop  offset="0" style="stop-color:#FFFFFF"/>
					<stop  offset="1" style="stop-color:#FFFFFF;stop-opacity:0"/>
				</radialGradient>
				<path fill="url(#SVGID_7_)" d="M255.134,388.499c-5.507-12-23.101-22.613-44.986-24.758c-1.002,1.703-2.149,3.515-3.467,4.858
					c-9.752,9.936-24.926,19.899,0.123,19.899H255.134z"/>
				<linearGradient id="SVGID_8_" gradientUnits="userSpaceOnUse" x1="206.8037" y1="387.5278" x2="318.3193" y2="387.5278">
					<stop  offset="0.0061" style="stop-color:#FFFFFF;stop-opacity:0"/>
					<stop  offset="0.5091" style="stop-color:#FFFFFF"/>
					<stop  offset="1" style="stop-color:#FFFFFF;stop-opacity:0"/>
				</linearGradient>
				<path fill="url(#SVGID_8_)" d="M206.804,387.528c9.291-0.156,18.584-0.228,27.878-0.288l27.878-0.086l27.878,0.084l13.939,0.104
					l13.942,0.187l-13.942,0.183l-13.939,0.103l-27.878,0.09l-27.878-0.09C225.388,387.753,216.095,387.682,206.804,387.528z"/>
				<linearGradient id="SVGID_9_" gradientUnits="userSpaceOnUse" x1="26.7334" y1="331.9302" x2="520.3409" y2="299.5748">
					<stop  offset="0" style="stop-color:#78797D"/>
					<stop  offset="0.3173" style="stop-color:#737478"/>
					<stop  offset="0.4909" style="stop-color:#6D6F73"/>
					<stop  offset="1" style="stop-color:#6D6F73"/>
				</linearGradient>
				<path fill="url(#SVGID_9_)" d="M34.676,323.094c0,7.448,6.661,14.404,14.11,14.404h209.033h7.116H473.97
					c7.446,0,14.706-6.956,14.706-14.404v-26.596h-454V323.094z"/>
				<path fill="#231F20" d="M473.97,27.499H264.935h-7.116H48.786c-7.449,0-14.11,4.193-14.11,11.64v257.36h454V39.138
					C488.676,31.691,481.416,27.499,473.97,27.499z M467.676,277.499h-414v-233h414V277.499z"/>
				<linearGradient id="SVGID_10_" gradientUnits="userSpaceOnUse" x1="26.833" y1="331.9214" x2="520.3345" y2="299.573">
					<stop  offset="0" style="stop-color:#898A8F"/>
					<stop  offset="0.0499" style="stop-color:#909196"/>
					<stop  offset="0.3137" style="stop-color:#B1B2B6"/>
					<stop  offset="0.5663" style="stop-color:#C8CACD"/>
					<stop  offset="0.801" style="stop-color:#D6D8DB"/>
					<stop  offset="1" style="stop-color:#DBDDE0"/>
				</linearGradient>
				<path fill="url(#SVGID_10_)" d="M34.676,321.596c0,7.447,6.661,15.902,14.11,15.902h209.033h7.116H473.97
					c7.446,0,14.706-8.455,14.706-15.902v-25.098h-454V321.596z"/>
			</g>
		</g>
		<rect x="53.676" y="70.499" fill-rule="evenodd" clip-rule="evenodd" fill="#8CC63F" width="414" height="79"/>
		<g>
			<circle fill-rule="evenodd" clip-rule="evenodd" fill="#FFFFFF" cx="119.548" cy="109.022" r="23.757"/>
			
				<circle fill-rule="evenodd" clip-rule="evenodd" fill="none" stroke="#FFFFFF" stroke-width="0.9427" cx="119.688" cy="109.261" r="27.862"/>
			<g>
				<path fill-rule="evenodd" clip-rule="evenodd" fill="#8CC63F" d="M122.558,125.513c-4.176-7.279-4.196-13.937,0.835-21.521
					c-5.285,5.621-6.338,14.399-2.135,21.872L122.558,125.513z"/>
				<path fill-rule="evenodd" clip-rule="evenodd" fill="#8CC63F" d="M121.122,111.722c3.829-1.604,7.691-1.208,10.597-4.997
					c2.581-3.375,2.656-7.824,5.926-11.3c-3.304,4.013-7.337,0.896-11.538,1.927c-4.947,1.22-6.152,6.562-6.436,11.31
					c1.123-4.796,5.891-7.718,10.624-8.122c-5.194,2.197-9.015,6.77-10.024,12.07L121.122,111.722z"/>
				<path fill-rule="evenodd" clip-rule="evenodd" fill="#8CC63F" d="M116.923,126.526c2.213-6.167,1.316-11.29-3.59-16.432
					c4.833,3.598,6.846,10.203,4.636,16.525L116.923,126.526z"/>
				<path fill-rule="evenodd" clip-rule="evenodd" fill="#8CC63F" d="M116.137,115.725c-3.163-0.708-6.079,0.125-8.832-2.389
					c-2.446-2.245-3.114-5.654-6.104-7.878c3.091,2.632,5.764-0.315,9.136-0.1c3.972,0.262,5.628,4.203,6.498,7.816
					c-1.521-3.535-5.587-5.128-9.281-4.789c4.295,0.978,7.859,3.969,9.36,7.906L116.137,115.725z"/>
			</g>
		</g>
		<g>
			<rect x="189.676" y="86.499" fill-rule="evenodd" clip-rule="evenodd" fill="#FFFFFF" width="36" height="11"/>
			<rect x="229.676" y="86.499" fill-rule="evenodd" clip-rule="evenodd" fill="#FFFFFF" width="215" height="11"/>
		</g>
		<rect x="189.676" y="108.499" fill-rule="evenodd" clip-rule="evenodd" fill="#D6F99D" width="255" height="4"/>
		<rect x="189.676" y="123.499" fill-rule="evenodd" clip-rule="evenodd" fill="#D6F99D" width="255" height="3"/>
		<rect x="128.676" y="157.499" fill="#4D4D4D" width="54" height="108"/>
		<rect x="65.676" y="157.499" fill="#4D4D4D" width="54" height="108"/>
		<rect x="199.676" y="163.499" fill="#D34658" width="81" height="49"/>
		<rect x="286.676" y="163.499" fill="#8CC63F" width="82" height="49"/>
		<rect x="375.676" y="163.499" fill="#D34658" width="81" height="49"/>
		<g>
			<rect x="199.676" y="218.499" fill="#666666" width="81" height="4"/>
			<rect x="199.676" y="225.499" fill="#999999" width="55" height="3"/>
			<rect x="199.676" y="231.499" fill="#999999" width="66" height="4"/>
		</g>
		<g>
			<rect x="286.676" y="225.499" fill="#999999" width="71" height="3"/>
			<rect x="286.676" y="231.499" fill="#999999" width="56" height="4"/>
			<rect x="286.676" y="218.499" fill="#666666" width="82" height="4"/>
		</g>
		<g>
			<rect x="375.676" y="225.499" fill="#999999" width="55" height="3"/>
			<rect x="375.676" y="231.499" fill="#999999" width="65" height="4"/>
			<rect x="375.676" y="218.499" fill="#666666" width="81" height="4"/>
		</g>
		<rect x="199.676" y="241.499" fill="#999999" width="54" height="2"/>
		<rect x="199.676" y="246.499" fill="#999999" width="80" height="3"/>
		<rect x="199.676" y="257.499" fill="#999999" width="80" height="3"/>
		<rect x="199.676" y="262.499" fill="#999999" width="54" height="3"/>
		<rect x="199.676" y="267.499" fill="#999999" width="80" height="3"/>
		<rect x="286.676" y="241.499" fill="#999999" width="55" height="2"/>
		<rect x="286.676" y="246.499" fill="#999999" width="80" height="3"/>
		<rect x="286.676" y="257.499" fill="#999999" width="80" height="3"/>
		<rect x="286.676" y="262.499" fill="#999999" width="55" height="3"/>
		<rect x="286.676" y="267.499" fill="#999999" width="80" height="3"/>
		<rect x="375.676" y="242.499" fill="#999999" width="54" height="2"/>
		<rect x="375.676" y="248.499" fill="#999999" width="78" height="2"/>
		<rect x="375.676" y="258.499" fill="#999999" width="78" height="3"/>
		<rect x="375.676" y="263.499" fill="#999999" width="54" height="3"/>
		<rect x="375.676" y="268.499" fill="#999999" width="78" height="3"/>
		<polygon opacity="0.3" fill="#FFFFFF" points="55.432,43.499 467.676,43.499 467.676,277.468 		"/>
	</g>
</g>
<g>
	<g>
		<defs>
			<filter id="Adobe_OpacityMaskFilter_1_" filterUnits="userSpaceOnUse" x="292.786" y="391.132" width="423.795" height="18.105">
				<feColorMatrix  type="matrix" values="1 0 0 0 0  0 1 0 0 0  0 0 1 0 0  0 0 0 1 0"/>
			</filter>
		</defs>
		<mask maskUnits="userSpaceOnUse" x="292.786" y="391.132" width="423.795" height="18.105" id="SVGID_11_">
			<g filter="url(#Adobe_OpacityMaskFilter_1_)">
				
					<radialGradient id="SVGID_12_" cx="412.1553" cy="1638.5259" r="85.3984" gradientTransform="matrix(2.4814 0 0 0.106 -518.0381 226.5009)" gradientUnits="userSpaceOnUse">
					<stop  offset="0" style="stop-color:#FFFFFF"/>
					<stop  offset="1" style="stop-color:#14130A"/>
				</radialGradient>
				<path fill="url(#SVGID_12_)" d="M716.581,400.184c0,5.006-94.867,9.054-211.898,9.054c-117.035,0-211.896-4.048-211.896-9.054
					c0-5.002,94.861-9.052,211.896-9.052C621.714,391.132,716.581,395.182,716.581,400.184z"/>
			</g>
		</mask>
		<linearGradient id="SVGID_13_" gradientUnits="userSpaceOnUse" x1="504.71" y1="409.2329" x2="504.6585" y2="391.2674">
			<stop  offset="0" style="stop-color:#4D4848"/>
			<stop  offset="0.3539" style="stop-color:#14130A"/>
			<stop  offset="1" style="stop-color:#14130A"/>
		</linearGradient>
		<path opacity="0.33" mask="url(#SVGID_11_)" fill="url(#SVGID_13_)" d="M716.581,400.184c0,5.006-94.867,9.054-211.898,9.054
			c-117.035,0-211.896-4.048-211.896-9.054c0-5.002,94.861-9.052,211.896-9.052C621.714,391.132,716.581,395.182,716.581,400.184z"
			/>
		<path d="M646.739,369.228c0,4.877-2.942,8.832-6.573,8.832H366.731c-3.631,0-6.574-3.955-6.574-8.832V193.806
			c0-4.875,2.943-8.828,6.574-8.828h273.435c3.631,0,6.573,3.953,6.573,8.828V369.228z"/>
		<rect x="371.583" y="195.577" fill="#FFFFFF" width="264.514" height="163.066"/>
		<g>
			<g>
				<path fill="#5F6767" d="M311.35,380.723c0,0-2.386,4.439,14.557,8.143h354.648c0,0,11.864-0.761,14.99-6.354l0.021-3.062
					L311.35,380.723z"/>
				<linearGradient id="SVGID_14_" gradientUnits="userSpaceOnUse" x1="311.1836" y1="377.2915" x2="695.7139" y2="377.2915">
					<stop  offset="0" style="stop-color:#999C9D"/>
					<stop  offset="9.591120e-04" style="stop-color:#A5A7A9"/>
					<stop  offset="0.0037" style="stop-color:#C2C3C5"/>
					<stop  offset="0.0067" style="stop-color:#D9D8DA"/>
					<stop  offset="0.0099" style="stop-color:#E9E7EA"/>
					<stop  offset="0.0134" style="stop-color:#F2F0F3"/>
					<stop  offset="0.0183" style="stop-color:#F5F3F6"/>
					<stop  offset="0.0488" style="stop-color:#DFE1E3"/>
					<stop  offset="0.189" style="stop-color:#D1D1D1"/>
					<stop  offset="0.5061" style="stop-color:#E3E5E7"/>
					<stop  offset="0.872" style="stop-color:#D1D1D1"/>
					<stop  offset="0.9512" style="stop-color:#DFE1E3"/>
					<stop  offset="0.9878" style="stop-color:#F5F3F6"/>
					<stop  offset="1" style="stop-color:#999C9D"/>
				</linearGradient>
				<path fill="url(#SVGID_14_)" d="M311.433,371.757H695.69v9.868c0,0,0.574,1.317-3.948,0.988H315.051
					c0,0-3.539,0.988-3.867-1.316L311.433,371.757z"/>
				<path fill="#5F6767" d="M677.841,377.517c0,0.384-0.255,0.693-0.568,0.693h-13.076c-0.314,0-0.568-0.31-0.568-0.693l0,0
					c0-0.384,0.254-0.694,0.568-0.694h13.076C677.586,376.823,677.841,377.133,677.841,377.517L677.841,377.517z"/>
			</g>
			<linearGradient id="SVGID_15_" gradientUnits="userSpaceOnUse" x1="503.459" y1="377.2847" x2="503.459" y2="371.8374">
				<stop  offset="0.3415" style="stop-color:#676B6C"/>
				<stop  offset="0.3611" style="stop-color:#707475"/>
				<stop  offset="0.4574" style="stop-color:#989B9C"/>
				<stop  offset="0.5524" style="stop-color:#B7B9BB"/>
				<stop  offset="0.6444" style="stop-color:#CDCFD1"/>
				<stop  offset="0.7321" style="stop-color:#DADDDE"/>
				<stop  offset="0.811" style="stop-color:#DFE1E3"/>
				<stop  offset="0.9817" style="stop-color:#E3E5E7"/>
			</linearGradient>
			<path fill="url(#SVGID_15_)" d="M477.462,371.837c0,0-1.48,4.935,3.454,5.429h44.577c0,0,4.743,0.615,4.112-5.264
				L477.462,371.837z"/>
			<g>
				<linearGradient id="SVGID_16_" gradientUnits="userSpaceOnUse" x1="478.5176" y1="376.8052" x2="478.5176" y2="371.7134">
					<stop  offset="0.0244" style="stop-color:#5F6767"/>
					<stop  offset="0.4756" style="stop-color:#676B6C"/>
					<stop  offset="0.5137" style="stop-color:#717576"/>
					<stop  offset="0.6192" style="stop-color:#878A8B"/>
					<stop  offset="0.7202" style="stop-color:#949899"/>
					<stop  offset="0.811" style="stop-color:#999C9D"/>
				</linearGradient>
				<path fill="url(#SVGID_16_)" d="M477.709,371.832h0.031l0.018-0.115l-0.543-0.003c0,0-1.343,4.285,2.812,5.092
					C476.475,375.767,477.709,371.832,477.709,371.832z"/>
				<linearGradient id="SVGID_17_" gradientUnits="userSpaceOnUse" x1="504.958" y1="377.0552" x2="504.958" y2="371.9878">
					<stop  offset="0.0244" style="stop-color:#5F6767"/>
					<stop  offset="0.4756" style="stop-color:#676B6C"/>
					<stop  offset="0.5137" style="stop-color:#717576"/>
					<stop  offset="0.6192" style="stop-color:#878A8B"/>
					<stop  offset="0.7202" style="stop-color:#949899"/>
					<stop  offset="0.811" style="stop-color:#999C9D"/>
				</linearGradient>
				<path fill="url(#SVGID_17_)" d="M529.853,371.99l-0.48-0.002v0.118c0.348,5.554-4.126,4.797-4.126,4.797h-44.577
					c-0.229-0.022-0.439-0.056-0.643-0.098c0.334,0.1,0.709,0.175,1.136,0.214h44.578
					C525.74,377.019,530.346,377.808,529.853,371.99z"/>
				<linearGradient id="SVGID_18_" gradientUnits="userSpaceOnUse" x1="529.3691" y1="372.106" x2="529.3691" y2="371.9878">
					<stop  offset="0.0244" style="stop-color:#5F6767"/>
					<stop  offset="0.4756" style="stop-color:#676B6C"/>
					<stop  offset="0.5137" style="stop-color:#717576"/>
					<stop  offset="0.6192" style="stop-color:#878A8B"/>
					<stop  offset="0.7202" style="stop-color:#949899"/>
					<stop  offset="0.811" style="stop-color:#999C9D"/>
				</linearGradient>
				<path fill="url(#SVGID_18_)" d="M529.372,372.106v-0.118h-0.005C529.368,372.028,529.368,372.065,529.372,372.106z"/>
			</g>
		</g>
	</g>
	<rect x="371.676" y="208.499" fill-rule="evenodd" clip-rule="evenodd" fill="#8CC63F" width="263" height="51"/>
	<g>
		<circle fill-rule="evenodd" clip-rule="evenodd" fill="#FFFFFF" cx="413.396" cy="233.45" r="15.225"/>
		
			<circle fill-rule="evenodd" clip-rule="evenodd" fill="none" stroke="#FFFFFF" stroke-width="0.6041" cx="413.487" cy="233.603" r="17.855"/>
		<g>
			<path fill-rule="evenodd" clip-rule="evenodd" fill="#8CC63F" d="M415.327,244.021c-2.677-4.666-2.688-8.935,0.535-13.791
				c-3.388,3.598-4.063,9.228-1.368,14.015L415.327,244.021z"/>
			<path fill-rule="evenodd" clip-rule="evenodd" fill="#8CC63F" d="M414.407,235.181c2.455-1.03,4.927-0.775,6.79-3.202
				c1.653-2.166,1.703-5.017,3.797-7.241c-2.116,2.571-4.701,0.574-7.394,1.234c-3.17,0.782-3.943,4.203-4.124,7.248
				c0.721-3.074,3.775-4.947,6.808-5.206c-3.328,1.408-5.777,4.34-6.425,7.735L414.407,235.181z"/>
			<path fill-rule="evenodd" clip-rule="evenodd" fill="#8CC63F" d="M411.717,244.668c1.418-3.952,0.843-7.235-2.301-10.532
				c3.097,2.308,4.385,6.54,2.971,10.591L411.717,244.668z"/>
			<path fill-rule="evenodd" clip-rule="evenodd" fill="#8CC63F" d="M411.211,237.746c-2.026-0.455-3.894,0.08-5.659-1.532
				c-1.567-1.436-1.995-3.62-3.911-5.048c1.981,1.688,3.694-0.203,5.854-0.064c2.544,0.168,3.606,2.693,4.162,5.009
				c-0.973-2.263-3.579-3.287-5.947-3.066c2.754,0.624,5.039,2.543,6,5.064L411.211,237.746z"/>
		</g>
	</g>
	<g>
		<rect x="457.676" y="218.499" fill-rule="evenodd" clip-rule="evenodd" fill="#FFFFFF" width="23" height="7"/>
		<rect x="484.676" y="218.499" fill-rule="evenodd" clip-rule="evenodd" fill="#FFFFFF" width="137" height="7"/>
	</g>
	<rect x="457.676" y="233.499" fill-rule="evenodd" clip-rule="evenodd" fill="#D6F99D" width="164" height="1"/>
	<rect x="457.676" y="242.499" fill-rule="evenodd" clip-rule="evenodd" fill="#D6F99D" width="164" height="3"/>
	<rect x="376.676" y="265.499" fill="#4D4D4D" width="36" height="68"/>
	<rect x="418.676" y="265.499" fill="#4D4D4D" width="35" height="68"/>
	<rect x="463.676" y="267.499" fill="#D34658" width="54" height="33"/>
	<rect x="520.676" y="267.499" fill="#8CC63F" width="53" height="33"/>
	<rect x="576.676" y="267.499" fill="#D34658" width="52" height="33"/>
	<g>
		<rect x="463.676" y="303.499" fill="#666666" width="54" height="2"/>
		<rect x="463.676" y="308.499" fill="#999999" width="37" height="2"/>
		<rect x="463.676" y="311.499" fill="#999999" width="42" height="3"/>
	</g>
	<g>
		<rect x="520.676" y="308.499" fill="#999999" width="45" height="2"/>
		<rect x="520.676" y="311.499" fill="#999999" width="36" height="3"/>
		<rect x="520.676" y="303.499" fill="#666666" width="53" height="2"/>
	</g>
	<g>
		<rect x="576.676" y="308.499" fill="#999999" width="36" height="2"/>
		<rect x="576.676" y="311.499" fill="#999999" width="42" height="3"/>
		<rect x="576.676" y="303.499" fill="#666666" width="52" height="2"/>
	</g>
	<rect x="463.676" y="318.499" fill="#999999" width="37" height="1"/>
	<rect x="463.676" y="321.499" fill="#999999" width="52" height="1"/>
	<g>
		<rect x="463.676" y="338.499" fill="#666666" width="54" height="2"/>
		<rect x="463.676" y="343.499" fill="#999999" width="37" height="2"/>
		<rect x="463.676" y="346.499" fill="#999999" width="42" height="4"/>
	</g>
	<rect x="463.676" y="353.499" fill="#999999" width="37" height="1"/>
	<rect x="463.676" y="356.499" fill="#999999" width="52" height="1"/>
	<g>
		<rect x="520.676" y="338.499" fill="#666666" width="53" height="2"/>
		<rect x="520.676" y="343.499" fill="#999999" width="36" height="2"/>
		<rect x="520.676" y="346.499" fill="#999999" width="41" height="4"/>
	</g>
	<rect x="520.676" y="353.499" fill="#999999" width="36" height="1"/>
	<rect x="520.676" y="356.499" fill="#999999" width="51" height="1"/>
	<g>
		<rect x="576.676" y="338.499" fill="#666666" width="52" height="2"/>
		<rect x="576.676" y="343.499" fill="#999999" width="36" height="2"/>
		<rect x="576.676" y="346.499" fill="#999999" width="41" height="4"/>
	</g>
	<rect x="576.676" y="353.499" fill="#999999" width="36" height="1"/>
	<rect x="576.676" y="356.499" fill="#999999" width="51" height="1"/>
	<rect x="463.676" y="328.499" fill="#999999" width="52" height="3"/>
	<rect x="464.861" y="333.499" fill="#999999" width="35.801" height="0"/>
	<rect x="463.676" y="335.499" fill="#999999" width="52" height="1"/>
	<rect x="520.676" y="318.499" fill="#999999" width="36" height="1"/>
	<rect x="520.676" y="321.499" fill="#999999" width="51" height="1"/>
	<rect x="520.676" y="328.499" fill="#999999" width="51" height="3"/>
	<rect x="576.676" y="328.499" fill="#999999" width="51" height="3"/>
	<rect x="520.55" y="333.499" fill="#999999" width="35.8" height="0"/>
	<rect x="520.676" y="335.499" fill="#999999" width="51" height="1"/>
	<rect x="576.676" y="319.499" fill="#999999" width="35" height="2"/>
	<rect x="576.676" y="322.499" fill="#999999" width="52" height="1"/>
	<rect x="576.676" y="335.499" fill="#999999" width="52" height="1"/>
	<polygon opacity="0.3" fill="#FFFFFF" points="370.176,194.499 634.676,194.499 634.676,345.885 	"/>
	<rect x="376.676" y="337.499" fill="#D34658" width="77" height="20"/>
</g>
<g>
	<rect x="560.676" y="19.499" fill="#FFFFFF" width="134" height="179"/>
	<g>
		<path fill="#231F20" d="M711.763,9.355c0-4.816-3.903-8.721-8.72-8.721H553.991c-4.817,0-8.721,3.905-8.721,8.721v198.631
			c0,4.817,3.903,8.722,8.721,8.722h149.052c4.816,0,8.72-3.904,8.72-8.722V9.355z M694.625,198.345H561.799V19.609h132.826V198.345
			z"/>
		<defs>
			<filter id="Adobe_OpacityMaskFilter_2_" filterUnits="userSpaceOnUse" x="534.787" y="216.346" width="186.114" height="18.649">
				<feColorMatrix  type="matrix" values="1 0 0 0 0  0 1 0 0 0  0 0 1 0 0  0 0 0 1 0"/>
			</filter>
		</defs>
		<mask maskUnits="userSpaceOnUse" x="534.787" y="216.346" width="186.114" height="18.649" id="SVGID_19_">
			<g filter="url(#Adobe_OpacityMaskFilter_2_)">
				
					<radialGradient id="SVGID_20_" cx="627.8438" cy="-406.5366" r="93.0581" gradientTransform="matrix(1 0 0 0.1002 0 266.4058)" gradientUnits="userSpaceOnUse">
					<stop  offset="0" style="stop-color:#FFFFFF"/>
					<stop  offset="1" style="stop-color:#14130A"/>
				</radialGradient>
				<path fill="url(#SVGID_20_)" d="M720.901,225.67c0,5.154-41.662,9.325-93.056,9.325c-51.398,0-93.059-4.171-93.059-9.325
					c0-5.155,41.66-9.324,93.059-9.324C679.239,216.346,720.901,220.515,720.901,225.67z"/>
			</g>
		</mask>
		<linearGradient id="SVGID_21_" gradientUnits="userSpaceOnUse" x1="627.8711" y1="234.9731" x2="627.8182" y2="216.502">
			<stop  offset="0" style="stop-color:#4D4848"/>
			<stop  offset="0.3539" style="stop-color:#14130A"/>
			<stop  offset="1" style="stop-color:#14130A"/>
		</linearGradient>
		<path opacity="0.33" mask="url(#SVGID_19_)" fill="url(#SVGID_21_)" d="M720.901,225.67c0,5.154-41.662,9.325-93.056,9.325
			c-51.398,0-93.059-4.171-93.059-9.325c0-5.155,41.66-9.324,93.059-9.324C679.239,216.346,720.901,220.515,720.901,225.67z"/>
		<linearGradient id="SVGID_22_" gradientUnits="userSpaceOnUse" x1="556.1191" y1="107.9663" x2="711.9971" y2="107.9663">
			<stop  offset="0" style="stop-color:#FFFFFF;stop-opacity:0"/>
			<stop  offset="1" style="stop-color:#FFFFFF"/>
		</linearGradient>
		<path opacity="0.6" fill="url(#SVGID_22_)" d="M655.397,0h48.278c0,0,9.252,0.091,8.245,12.339l-0.279,195.31
			c0,0,0.55,7.313-8.914,8.284c-9.751-0.54-146.608,0-146.608,0"/>
	</g>
	<g>
		<rect x="562.676" y="33.499" fill-rule="evenodd" clip-rule="evenodd" fill="#8CC63F" width="132" height="63"/>
		<g>
			<ellipse fill-rule="evenodd" clip-rule="evenodd" fill="#FFFFFF" cx="588.008" cy="61.151" rx="18.284" ry="18.579"/>
			<path fill-rule="evenodd" clip-rule="evenodd" fill="none" stroke="#FFFFFF" stroke-width="0.7313" d="M609.561,61.338
				c0,12.034-9.602,21.787-21.442,21.787c-11.846,0-21.444-9.753-21.444-21.787c0-12.031,9.599-21.787,21.444-21.787
				C599.959,39.552,609.561,49.308,609.561,61.338z"/>
			<g>
				<path fill-rule="evenodd" clip-rule="evenodd" fill="#8CC63F" d="M590.325,74.048c-3.215-5.691-3.23-10.899,0.644-16.828
					c-4.068,4.394-4.879,11.258-1.644,17.104L590.325,74.048z"/>
				<path fill-rule="evenodd" clip-rule="evenodd" fill="#8CC63F" d="M589.221,63.264c2.948-1.256,5.92-0.944,8.156-3.907
					c1.986-2.639,2.044-6.12,4.56-8.839c-2.544,3.14-5.646,0.704-8.879,1.508c-3.808,0.956-4.734,5.13-4.954,8.844
					c0.865-3.749,4.534-6.037,8.179-6.35c-4,1.719-6.941,5.292-7.72,9.436L589.221,63.264z"/>
				<path fill-rule="evenodd" clip-rule="evenodd" fill="#8CC63F" d="M585.987,74.842c1.705-4.826,1.016-8.829-2.76-12.853
					c3.716,2.815,5.267,7.98,3.567,12.923L585.987,74.842z"/>
				<path fill-rule="evenodd" clip-rule="evenodd" fill="#8CC63F" d="M585.383,66.394c-2.435-0.554-4.679,0.095-6.796-1.87
					c-1.884-1.754-2.396-4.42-4.7-6.159c2.382,2.06,4.44-0.246,7.032-0.078c3.058,0.205,4.333,3.287,5.002,6.112
					c-1.172-2.763-4.301-4.01-7.144-3.745c3.308,0.765,6.049,3.105,7.203,6.182L585.383,66.394z"/>
			</g>
		</g>
		<g>
			<rect x="620.676" y="49.499" fill-rule="evenodd" clip-rule="evenodd" fill="#FFFFFF" width="8" height="7"/>
			<rect x="630.676" y="49.499" fill-rule="evenodd" clip-rule="evenodd" fill="#FFFFFF" width="48" height="7"/>
		</g>
		<rect x="619.832" y="64.499" fill-rule="evenodd" clip-rule="evenodd" fill="#D6F99D" width="57.9" height="0"/>
		<rect x="620.676" y="71.499" fill-rule="evenodd" clip-rule="evenodd" fill="#D6F99D" width="58" height="3"/>
	</g>
	<rect x="568.676" y="103.499" fill="#D34658" width="56" height="35"/>
	<rect x="568.676" y="169.499" fill="#D34658" width="56" height="29"/>
	<g>
		<rect x="568.676" y="142.499" fill="#666666" width="56" height="4"/>
		<rect x="568.676" y="148.499" fill="#999999" width="39" height="2"/>
		<rect x="568.676" y="152.499" fill="#999999" width="44" height="2"/>
	</g>
	<rect x="568.676" y="158.499" fill="#999999" width="39" height="2"/>
	<rect x="568.676" y="162.499" fill="#999999" width="55" height="1"/>
	<rect x="569.04" y="175.499" fill="#999999" width="38.29" height="0"/>
	<rect x="630.676" y="104.499" fill="#8CC63F" width="55" height="36"/>
	<g>
		<rect x="630.676" y="149.499" fill="#999999" width="48" height="3"/>
		<rect x="630.676" y="153.499" fill="#999999" width="38" height="2"/>
		<rect x="630.676" y="145.499" fill="#666666" width="55" height="2"/>
	</g>
	<rect x="630.676" y="160.499" fill="#999999" width="38" height="2"/>
	<rect x="630.676" y="163.499" fill="#999999" width="54" height="1"/>
	<rect x="630.676" y="170.499" fill="#999999" width="54" height="5"/>
	<rect x="629.938" y="176.499" fill="#999999" width="38.289" height="0"/>
	<rect x="630.676" y="177.499" fill="#999999" width="54" height="1"/>
	<g>
		<rect x="630.676" y="191.499" fill="#999999" width="48" height="2"/>
		<rect x="630.676" y="194.499" fill="#999999" width="38" height="4"/>
		<rect x="630.676" y="185.499" fill="#666666" width="55" height="2"/>
	</g>
	<polygon opacity="0.3" fill="#FFFFFF" points="694.676,198.417 694.676,19.499 592.633,19.499 	"/>
</g>
<g>
	<rect x="21.676" y="257.499" fill="#FFFFFF" width="60" height="108"/>
	<g>
		<defs>
			<filter id="Adobe_OpacityMaskFilter_3_" filterUnits="userSpaceOnUse" x="0" y="388.212" width="101.492" height="8.656">
				<feColorMatrix  type="matrix" values="1 0 0 0 0  0 1 0 0 0  0 0 1 0 0  0 0 0 1 0"/>
			</filter>
		</defs>
		<mask maskUnits="userSpaceOnUse" x="0" y="388.212" width="101.492" height="8.656" id="SVGID_23_">
			<g filter="url(#Adobe_OpacityMaskFilter_3_)">
				
					<radialGradient id="SVGID_24_" cx="67.4463" cy="1598.897" r="48.4731" gradientTransform="matrix(1.0468 0 0 0.0893 -19.8561 249.7589)" gradientUnits="userSpaceOnUse">
					<stop  offset="0" style="stop-color:#FFFFFF"/>
					<stop  offset="1" style="stop-color:#14130A"/>
				</radialGradient>
				<path fill="url(#SVGID_24_)" d="M101.492,392.542c0,2.392-22.72,4.327-50.747,4.327C22.717,396.869,0,394.933,0,392.542
					c0-2.394,22.717-4.329,50.745-4.329C78.772,388.212,101.492,390.148,101.492,392.542z"/>
			</g>
		</mask>
		<linearGradient id="SVGID_25_" gradientUnits="userSpaceOnUse" x1="50.7588" y1="396.8599" x2="50.7342" y2="388.2841">
			<stop  offset="0" style="stop-color:#4D4848"/>
			<stop  offset="0.3539" style="stop-color:#14130A"/>
			<stop  offset="1" style="stop-color:#14130A"/>
		</linearGradient>
		<path opacity="0.33" mask="url(#SVGID_23_)" fill="url(#SVGID_25_)" d="M101.492,392.542c0,2.392-22.72,4.327-50.747,4.327
			C22.717,396.869,0,394.933,0,392.542c0-2.394,22.717-4.329,50.745-4.329C78.772,388.212,101.492,390.148,101.492,392.542z"/>
		<path fill="#231F20" d="M86.968,246.111c0-5.629-4.563-10.192-10.192-10.192H25.607c-5.631,0-10.193,4.563-10.193,10.192v131.043
			c0,5.629,4.562,10.192,10.193,10.192h51.168c5.629,0,10.192-4.563,10.192-10.192V246.111z M58.678,249.283
			c0,0.891-0.721,1.612-1.611,1.612h-10.92c-0.891,0-1.611-0.722-1.611-1.612v-0.104c0-0.891,0.721-1.611,1.611-1.611h10.92
			c0.891,0,1.611,0.721,1.611,1.611V249.283z M81.977,365.712H21.238V257.551h60.738V365.712z"/>
	</g>
	<g>
		<rect x="21.676" y="267.499" fill-rule="evenodd" clip-rule="evenodd" fill="#8CC63F" width="60" height="40"/>
		<g>
			<ellipse fill-rule="evenodd" clip-rule="evenodd" fill="#FFFFFF" cx="39.446" cy="286.619" rx="11.989" ry="12.3"/>
			<path fill-rule="evenodd" clip-rule="evenodd" fill="none" stroke="#FFFFFF" stroke-width="0.4818" d="M53.58,286.746
				c0,7.964-6.295,14.421-14.062,14.421s-14.062-6.457-14.062-14.421c0-7.968,6.295-14.425,14.062-14.425
				S53.58,278.778,53.58,286.746z"/>
			<g>
				<path fill-rule="evenodd" clip-rule="evenodd" fill="#8CC63F" d="M40.967,295.156c-2.107-3.766-2.119-7.214,0.421-11.139
					c-2.667,2.909-3.2,7.452-1.077,11.322L40.967,295.156z"/>
				<path fill-rule="evenodd" clip-rule="evenodd" fill="#8CC63F" d="M40.242,288.018c1.932-0.832,3.883-0.625,5.35-2.587
					c1.302-1.748,1.34-4.053,2.989-5.853c-1.669,2.08-3.704,0.466-5.825,0.999c-2.494,0.633-3.103,3.396-3.246,5.856
					c0.566-2.483,2.973-3.996,5.361-4.204c-2.621,1.138-4.55,3.504-5.061,6.246L40.242,288.018z"/>
				<path fill-rule="evenodd" clip-rule="evenodd" fill="#8CC63F" d="M38.121,295.683c1.118-3.196,0.666-5.846-1.807-8.509
					c2.436,1.861,3.451,5.284,2.337,8.556L38.121,295.683z"/>
				<path fill-rule="evenodd" clip-rule="evenodd" fill="#8CC63F" d="M37.724,290.091c-1.595-0.367-3.065,0.062-4.454-1.239
					c-1.236-1.162-1.572-2.925-3.082-4.077c1.562,1.362,2.912-0.163,4.611-0.053c2.004,0.136,2.841,2.177,3.279,4.049
					c-0.768-1.831-2.82-2.655-4.686-2.481c2.17,0.507,3.967,2.057,4.727,4.093L37.724,290.091z"/>
			</g>
		</g>
	</g>
	<rect x="25.676" y="312.499" fill="#D34658" width="52" height="30"/>
	<g>
		<rect x="25.676" y="346.499" fill="#666666" width="52" height="2"/>
		<rect x="25.676" y="351.499" fill="#999999" width="36" height="1"/>
		<rect x="25.676" y="354.499" fill="#999999" width="40" height="3"/>
	</g>
	<rect x="25.676" y="360.499" fill="#999999" width="36" height="1"/>
	<rect x="26.271" y="363.499" fill="#999999" width="49.412" height="0"/>
	<g>
		<rect x="56.676" y="280.499" fill="#FFFFFF" width="21" height="3"/>
		<rect x="56.676" y="285.499" fill="#FFFFFF" width="14" height="1"/>
		<rect x="56.676" y="289.499" fill="#FFFFFF" width="16" height="2"/>
	</g>
	<polygon opacity="0.3" fill="#FFFFFF" points="81.676,365.881 81.676,257.499 21.629,257.499 	"/>
</g>
</svg>
